<svg version="1.1" id="Layer_1" xmlns="http://www.w3.org/2000/svg" xmlns:xlink="http://www.w3.org/1999/xlink" x="0px" y="0px"
	 width="100%" viewBox="0 0 500 408" enable-background="new 0 0 500 408" xml:space="preserve">
<path fill="#FFFEFE" opacity="1.000000" stroke="none" 
	d="
M292.000000,409.000000 
	C194.693314,409.000000 97.886620,409.000000 1.039963,409.000000 
	C1.039963,273.064056 1.039963,137.128128 1.039963,1.096091 
	C167.556702,1.096091 334.113495,1.096091 500.835144,1.096091 
	C500.835144,136.999847 500.835144,272.999908 500.835144,409.000000 
	C431.461426,409.000000 361.980713,409.000000 292.000000,409.000000 
M12.473224,115.276154 
	C12.400910,115.634140 12.328598,115.992126 12.200998,116.710556 
	C12.200998,116.710556 11.970697,116.993286 11.482518,117.304832 
	C11.419890,117.665321 11.357263,118.025803 11.244327,118.735207 
	C11.244327,118.735207 11.014791,119.002762 10.456997,119.339500 
	C10.268831,120.156105 10.080666,120.972702 9.954523,121.898003 
	C9.954523,121.898003 9.844317,121.957306 9.375459,122.250862 
	C9.319625,122.597450 9.263792,122.944046 9.181466,123.671181 
	C9.181466,123.671181 8.981678,123.996132 8.458212,124.376068 
	C8.352568,124.981857 8.246923,125.587654 8.127008,126.612122 
	C8.127008,126.612122 7.940599,126.987282 7.363586,127.310013 
	C7.128527,128.879623 6.893468,130.449249 6.549668,132.785049 
	C6.371164,133.269073 6.192661,133.753098 5.805949,134.395920 
	C5.716922,134.585678 5.757245,134.742004 5.986602,134.936829 
	C5.986602,134.936829 5.910671,134.991257 5.369229,135.507568 
	C5.091954,139.341736 4.814678,143.175919 4.602485,147.942383 
	C4.599005,177.288940 4.595526,206.635513 4.147102,236.634933 
	C5.033957,241.433228 5.920812,246.231522 7.037808,251.758560 
	C10.396189,259.141663 12.847351,267.129456 17.287727,273.791412 
	C29.292690,291.802612 46.434032,302.970276 67.770020,306.595245 
	C87.664497,309.975281 107.384659,310.471466 124.143990,295.967407 
	C125.275139,294.988495 127.790215,294.467133 129.016220,295.062378 
	C130.227402,295.650421 131.326630,297.957123 131.260239,299.456116 
	C130.659424,313.023956 128.467880,326.321808 122.412117,338.629272 
	C112.609901,358.550934 93.148705,366.843872 72.224426,359.327179 
	C63.544136,356.208923 55.462696,351.327240 47.301243,346.893494 
	C41.400223,343.687683 40.231918,343.599152 35.772873,348.376160 
	C30.089766,354.464539 24.393589,360.540710 18.695837,366.615387 
	C13.766155,371.871155 13.819084,374.134369 19.415194,378.937775 
	C29.326101,387.444794 40.138233,394.489563 52.307640,399.450226 
	C93.730011,416.335388 138.867508,401.511169 160.466751,363.524475 
	C171.683395,343.797699 176.037918,322.130737 176.115128,299.701233 
	C176.351990,230.893341 176.240448,162.084274 176.281891,93.275665 
	C176.284195,89.445732 176.564270,85.613968 176.502426,81.786491 
	C176.414108,76.319946 175.055069,74.991325 169.674164,74.968445 
	C158.678192,74.921692 147.680756,75.036911 136.686371,74.895721 
	C132.297852,74.839363 130.374466,76.678017 129.992172,81.031723 
	C129.828415,82.896454 128.737564,85.647682 127.369438,86.171417 
	C125.950165,86.714729 123.617188,85.193710 121.803688,84.325226 
	C116.004639,81.548042 110.543243,77.315269 104.448746,76.031891 
	C73.536484,69.522377 36.021065,77.662750 13.514950,113.306000 
	C13.336349,113.861061 13.157747,114.416122 13.003423,114.994781 
	C13.003423,114.994781 12.971964,114.986778 12.473224,115.276154 
M408.500000,308.100037 
	C435.320618,308.097839 462.141205,308.105835 488.961823,308.085724 
	C494.970123,308.081238 495.944550,307.113251 495.972412,301.138214 
	C496.011993,292.642426 495.984589,284.146271 495.979156,275.650269 
	C495.974091,267.687592 495.306213,266.988831 487.546295,266.986542 
	C461.558502,266.978882 435.570709,266.985382 409.582916,266.980804 
	C407.917664,266.980499 406.236725,267.068390 404.590424,266.878296 
	C401.038757,266.468262 399.570862,264.481628 400.712189,260.987457 
	C401.172241,259.578979 401.924713,258.256378 402.624084,256.937073 
	C432.791992,200.031464 462.977509,143.135178 493.134216,86.223625 
	C497.082947,78.771584 495.575806,76.311264 487.087738,76.308067 
	C437.777557,76.289482 388.467377,76.294807 339.157196,76.315025 
	C333.207153,76.317467 332.116608,77.402969 332.088470,83.249207 
	C332.045166,92.244781 332.055756,101.240776 332.083954,110.236465 
	C332.103943,116.619720 332.836426,117.380005 339.347961,117.387894 
	C363.169952,117.416756 386.992035,117.390472 410.814056,117.403557 
	C413.143433,117.404831 415.494263,117.358932 417.797455,117.641815 
	C422.008392,118.159004 423.200165,120.236107 421.718292,124.240143 
	C421.259399,125.480118 420.560852,126.635277 419.932648,127.808167 
	C389.522552,184.585007 359.097198,241.353699 328.707245,298.141327 
	C324.649689,305.723480 326.052032,308.070923 334.534271,308.081696 
	C358.856140,308.112610 383.178101,308.097260 408.500000,308.100037 
M232.131058,277.500000 
	C232.129288,285.498932 232.199219,293.498810 232.097977,301.496460 
	C232.040237,306.057159 233.906921,308.218628 238.651138,308.151245 
	C248.981033,308.004578 259.314545,308.133942 269.646271,308.087341 
	C275.368469,308.061523 276.765167,306.722015 276.766907,301.020660 
	C276.789368,228.363663 276.788300,155.706650 276.760895,83.049660 
	C276.758789,77.458809 275.311584,76.122528 269.521576,76.094009 
	C260.023071,76.047211 250.524170,76.067955 241.025452,76.082619 
	C233.167114,76.094749 232.133438,77.137573 232.133041,85.025467 
	C232.129807,148.850311 232.131134,212.675156 232.131058,277.500000 
M260.758698,8.167455 
	C257.980286,11.259939 255.193909,14.345338 252.425064,17.446371 
	C246.445557,24.143238 240.013107,30.510387 234.739014,37.723869 
	C232.760620,40.429764 232.600540,45.261482 233.214172,48.849941 
	C233.873383,52.704922 238.068542,52.070026 241.185471,52.080227 
	C250.832855,52.111801 260.480530,52.057499 270.127930,52.092285 
	C274.537109,52.108185 277.015839,50.322929 276.992310,45.600235 
	C276.934357,33.957001 277.045868,22.312702 276.949585,10.669985 
	C276.907532,5.585952 275.011658,3.486790 269.920258,3.996770 
	C266.933899,4.295897 264.122620,6.342360 260.758698,8.167455 
z"/>
<path fill="#C8030B" opacity="1.000000" stroke="none" 
	d="
M11.014792,119.002762 
	C11.014791,119.002762 11.244327,118.735207 11.511442,118.409607 
	C11.842604,117.720436 11.906650,117.356865 11.970696,116.993286 
	C11.970697,116.993286 12.200998,116.710556 12.476262,116.388931 
	C12.825005,115.707138 12.898483,115.346954 12.971964,114.986778 
	C12.971964,114.986778 13.003423,114.994781 13.246297,114.829605 
	C13.681502,114.121475 13.873834,113.578514 14.066164,113.035561 
	C36.021065,77.662750 73.536484,69.522377 104.448746,76.031891 
	C110.543243,77.315269 116.004639,81.548042 121.803688,84.325226 
	C123.617188,85.193710 125.950165,86.714729 127.369438,86.171417 
	C128.737564,85.647682 129.828415,82.896454 129.992172,81.031723 
	C130.374466,76.678017 132.297852,74.839363 136.686371,74.895721 
	C147.680756,75.036911 158.678192,74.921692 169.674164,74.968445 
	C175.055069,74.991325 176.414108,76.319946 176.502426,81.786491 
	C176.564270,85.613968 176.284195,89.445732 176.281891,93.275665 
	C176.240448,162.084274 176.351990,230.893341 176.115128,299.701233 
	C176.037918,322.130737 171.683395,343.797699 160.466751,363.524475 
	C138.867508,401.511169 93.730011,416.335388 52.307640,399.450226 
	C40.138233,394.489563 29.326101,387.444794 19.415194,378.937775 
	C13.819084,374.134369 13.766155,371.871155 18.695837,366.615387 
	C24.393589,360.540710 30.089766,354.464539 35.772873,348.376160 
	C40.231918,343.599152 41.400223,343.687683 47.301243,346.893494 
	C55.462696,351.327240 63.544136,356.208923 72.224426,359.327179 
	C93.148705,366.843872 112.609901,358.550934 122.412117,338.629272 
	C128.467880,326.321808 130.659424,313.023956 131.260239,299.456116 
	C131.326630,297.957123 130.227402,295.650421 129.016220,295.062378 
	C127.790215,294.467133 125.275139,294.988495 124.143990,295.967407 
	C107.384659,310.471466 87.664497,309.975281 67.770020,306.595245 
	C46.434032,302.970276 29.292690,291.802612 17.287727,273.791412 
	C12.847351,267.129456 10.396189,259.141663 6.965600,250.980713 
	C6.126277,245.462601 5.359163,240.722336 4.592048,235.982071 
	C4.595526,206.635513 4.599005,177.288940 4.736010,147.071136 
	C5.216579,142.463684 5.563624,138.727478 5.910670,134.991257 
	C5.910671,134.991257 5.986602,134.936829 6.083617,134.826141 
	C6.308808,134.491928 6.253317,134.332474 6.014157,134.237122 
	C6.192661,133.753098 6.371164,133.269073 6.799891,132.079681 
	C7.346942,129.911957 7.643770,128.449615 7.940598,126.987282 
	C7.940599,126.987282 8.127008,126.612122 8.383829,126.209076 
	C8.754327,125.202736 8.868003,124.599434 8.981678,123.996132 
	C8.981678,123.996132 9.181466,123.671181 9.434074,123.339722 
	C9.739226,122.657936 9.791772,122.307625 9.844317,121.957306 
	C9.844317,121.957306 9.954523,121.898003 10.128159,121.610748 
	C10.539461,120.549911 10.777127,119.776337 11.014792,119.002762 
M130.070877,196.500000 
	C130.061432,180.839035 130.081497,165.177979 130.031631,149.517136 
	C130.001160,139.946350 126.042717,132.319733 118.901405,125.947273 
	C108.027000,116.243607 95.207573,114.415985 81.516037,116.155037 
	C67.136147,117.981522 48.480663,134.028839 48.865612,153.220947 
	C49.373352,178.535019 49.039047,203.867065 48.967113,229.191101 
	C48.939548,238.896713 52.573997,246.878250 59.210491,253.848785 
	C69.176102,264.316010 81.354179,268.127106 95.450218,266.667206 
	C116.749268,264.461273 130.069534,249.753036 130.070038,228.488876 
	C130.070282,218.159256 130.070602,207.829620 130.070877,196.500000 
z"/>
<path fill="#C8040C" opacity="1.000000" stroke="none" 
	d="
M408.000000,308.100037 
	C383.178101,308.097260 358.856140,308.112610 334.534271,308.081696 
	C326.052032,308.070923 324.649689,305.723480 328.707245,298.141327 
	C359.097198,241.353699 389.522552,184.585007 419.932648,127.808167 
	C420.560852,126.635277 421.259399,125.480118 421.718292,124.240143 
	C423.200165,120.236107 422.008392,118.159004 417.797455,117.641815 
	C415.494263,117.358932 413.143433,117.404831 410.814056,117.403557 
	C386.992035,117.390472 363.169952,117.416756 339.347961,117.387894 
	C332.836426,117.380005 332.103943,116.619720 332.083954,110.236465 
	C332.055756,101.240776 332.045166,92.244781 332.088470,83.249207 
	C332.116608,77.402969 333.207153,76.317467 339.157196,76.315025 
	C388.467377,76.294807 437.777557,76.289482 487.087738,76.308067 
	C495.575806,76.311264 497.082947,78.771584 493.134216,86.223625 
	C462.977509,143.135178 432.791992,200.031464 402.624084,256.937073 
	C401.924713,258.256378 401.172241,259.578979 400.712189,260.987457 
	C399.570862,264.481628 401.038757,266.468262 404.590424,266.878296 
	C406.236725,267.068390 407.917664,266.980499 409.582916,266.980804 
	C435.570709,266.985382 461.558502,266.978882 487.546295,266.986542 
	C495.306213,266.988831 495.974091,267.687592 495.979156,275.650269 
	C495.984589,284.146271 496.011993,292.642426 495.972412,301.138214 
	C495.944550,307.113251 494.970123,308.081238 488.961823,308.085724 
	C462.141205,308.105835 435.320618,308.097839 408.000000,308.100037 
z"/>
<path fill="#C8050D" opacity="1.000000" stroke="none" 
	d="
M232.131073,277.000000 
	C232.131134,212.675156 232.129807,148.850311 232.133041,85.025467 
	C232.133438,77.137573 233.167114,76.094749 241.025452,76.082619 
	C250.524170,76.067955 260.023071,76.047211 269.521576,76.094009 
	C275.311584,76.122528 276.758789,77.458809 276.760895,83.049660 
	C276.788300,155.706650 276.789368,228.363663 276.766907,301.020660 
	C276.765167,306.722015 275.368469,308.061523 269.646271,308.087341 
	C259.314545,308.133942 248.981033,308.004578 238.651138,308.151245 
	C233.906921,308.218628 232.040237,306.057159 232.097977,301.496460 
	C232.199219,293.498810 232.129288,285.498932 232.131073,277.000000 
z"/>
<path fill="#C6070E" opacity="1.000000" stroke="none" 
	d="
M260.995636,7.885145 
	C264.122620,6.342360 266.933899,4.295897 269.920258,3.996770 
	C275.011658,3.486790 276.907532,5.585952 276.949585,10.669985 
	C277.045868,22.312702 276.934357,33.957001 276.992310,45.600235 
	C277.015839,50.322929 274.537109,52.108185 270.127930,52.092285 
	C260.480530,52.057499 250.832855,52.111801 241.185471,52.080227 
	C238.068542,52.070026 233.873383,52.704922 233.214172,48.849941 
	C232.600540,45.261482 232.760620,40.429764 234.739014,37.723869 
	C240.013107,30.510387 246.445557,24.143238 252.425064,17.446371 
	C255.193909,14.345338 257.980286,11.259939 260.995636,7.885145 
z"/>
<path fill="#F0C3C4" opacity="1.000000" stroke="none" 
	d="
M4.369576,236.308502 
	C5.359163,240.722336 6.126277,245.462601 6.850529,250.616333 
	C5.920812,246.231522 5.033957,241.433228 4.369576,236.308502 
z"/>
<path fill="#F0C3C4" opacity="1.000000" stroke="none" 
	d="
M5.639950,135.249420 
	C5.563624,138.727478 5.216579,142.463684 4.703468,146.604996 
	C4.814678,143.175919 5.091954,139.341736 5.639950,135.249420 
z"/>
<path fill="#F0C3C4" opacity="1.000000" stroke="none" 
	d="
M7.652092,127.148651 
	C7.643770,128.449615 7.346942,129.911957 6.854262,131.696579 
	C6.893468,130.449249 7.128527,128.879623 7.652092,127.148651 
z"/>
<path fill="#F0C3C4" opacity="1.000000" stroke="none" 
	d="
M10.735895,119.171127 
	C10.777127,119.776337 10.539461,120.549911 10.097147,121.556396 
	C10.080666,120.972702 10.268831,120.156105 10.735895,119.171127 
z"/>
<path fill="#F0C3C4" opacity="1.000000" stroke="none" 
	d="
M8.719945,124.186096 
	C8.868003,124.599434 8.754327,125.202736 8.390965,125.999741 
	C8.246923,125.587654 8.352568,124.981857 8.719945,124.186096 
z"/>
<path fill="#F0C3C4" opacity="1.000000" stroke="none" 
	d="
M13.790558,113.170776 
	C13.873834,113.578514 13.681502,114.121475 13.234159,114.817810 
	C13.157747,114.416122 13.336349,113.861061 13.790558,113.170776 
z"/>
<path fill="#F0C3C4" opacity="1.000000" stroke="none" 
	d="
M12.722593,115.131470 
	C12.898483,115.346954 12.825005,115.707138 12.503905,116.208710 
	C12.328598,115.992126 12.400910,115.634140 12.722593,115.131470 
z"/>
<path fill="#F0C3C4" opacity="1.000000" stroke="none" 
	d="
M11.726606,117.149063 
	C11.906650,117.356865 11.842604,117.720436 11.536596,118.235153 
	C11.357263,118.025803 11.419890,117.665321 11.726606,117.149063 
z"/>
<path fill="#F0C3C4" opacity="1.000000" stroke="none" 
	d="
M9.609888,122.104080 
	C9.791772,122.307625 9.739226,122.657936 9.447320,123.149445 
	C9.263792,122.944046 9.319625,122.597450 9.609888,122.104080 
z"/>
<path fill="#F0C3C4" opacity="1.000000" stroke="none" 
	d="
M5.910053,134.316528 
	C6.253317,134.332474 6.308808,134.491928 6.053775,134.790192 
	C5.757245,134.742004 5.716922,134.585678 5.910053,134.316528 
z"/>
<path fill="#FFFDFD" opacity="1.000000" stroke="none" 
	d="
M130.070892,197.000000 
	C130.070602,207.829620 130.070282,218.159256 130.070038,228.488876 
	C130.069534,249.753036 116.749268,264.461273 95.450218,266.667206 
	C81.354179,268.127106 69.176102,264.316010 59.210491,253.848785 
	C52.573997,246.878250 48.939548,238.896713 48.967113,229.191101 
	C49.039047,203.867065 49.373352,178.535019 48.865612,153.220947 
	C48.480663,134.028839 67.136147,117.981522 81.516037,116.155037 
	C95.207573,114.415985 108.027000,116.243607 118.901405,125.947273 
	C126.042717,132.319733 130.001160,139.946350 130.031631,149.517136 
	C130.081497,165.177979 130.061432,180.839035 130.070892,197.000000 
z"/>
</svg>