<?xml version="1.0" encoding="utf-8"?>
<!-- Generator: Adobe Illustrator 19.2.1, SVG Export Plug-In . SVG Version: 6.00 Build 0)  -->
<svg version="1.1" id="layer" xmlns="http://www.w3.org/2000/svg" xmlns:xlink="http://www.w3.org/1999/xlink" x="0px" y="0px"
	 viewBox="0 0 652 652" style="enable-background:new 0 0 652 652;" xml:space="preserve">
<style type="text/css">
	.st0{fill:#0C3C47;}
	.st1{fill:url(#SVGID_1_);}
	.st2{fill:url(#SVGID_2_);}
	.st3{fill:url(#SVGID_3_);}
	.st4{fill:url(#SVGID_4_);}
	.st5{fill:url(#SVGID_5_);}
	.st6{fill:url(#SVGID_6_);}
	.st7{fill:url(#SVGID_7_);}
	.st8{fill:url(#SVGID_8_);}
	.st9{fill:url(#SVGID_9_);}
	.st10{fill:url(#SVGID_10_);}
	.st11{fill:url(#SVGID_11_);}
	.st12{fill:url(#SVGID_12_);}
	.st13{fill:url(#SVGID_13_);}
	.st14{fill:url(#SVGID_14_);}
	.st15{fill:url(#SVGID_15_);}
	.st16{fill:url(#SVGID_16_);}
	.st17{fill:url(#SVGID_17_);}
	.st18{fill:url(#SVGID_18_);}
	.st19{fill:url(#SVGID_19_);}
	.st20{fill:url(#SVGID_20_);}
	.st21{fill:url(#SVGID_21_);}
	.st22{fill:url(#SVGID_22_);}
	.st23{fill:url(#SVGID_23_);}
	.st24{fill:url(#SVGID_24_);}
	.st25{fill:url(#SVGID_25_);}
	.st26{fill:url(#SVGID_26_);}
	.st27{fill:url(#SVGID_27_);}
	.st28{fill:url(#SVGID_28_);}
	.st29{fill:url(#SVGID_29_);}
	.st30{fill:url(#SVGID_30_);}
	.st31{fill:url(#SVGID_31_);}
	.st32{fill:url(#SVGID_32_);}
	.st33{fill:url(#SVGID_33_);}
	.st34{fill:url(#SVGID_34_);}
	.st35{fill:url(#SVGID_35_);}
	.st36{fill:url(#SVGID_36_);}
	.st37{fill:url(#SVGID_37_);}
</style>
<g>
	<g>
		<path class="st0" d="M45.2,168.4v152.3H24.7V168.4H45.2z"/>
		<path class="st0" d="M80.3,284.7v5.5c0,8.9,3,15.1,11,15.1c7.3,0,10.5-4.6,10.5-13.7c0-9.1-2.8-14.4-16.7-23.5
			c-16-10.3-23.5-18.7-23.5-35.4c0-18.7,9.8-31,29.7-31c21.4,0,29.4,12.6,29.4,32.4v5h-19.9v-6.9c0-8.9-2.8-13.2-9.6-13.2
			c-6.6,0-9.4,4.8-9.4,12.1c0,7.5,2.5,11,13.7,18.3c19.2,12.3,26.7,20.5,26.7,39.9c0,21.9-10.5,33.3-31.7,33.3
			c-25.1,0-31-16-31-32.6v-5.3L80.3,284.7L80.3,284.7z"/>
		<path class="st0" d="M135.4,168.4H166c32.6,0,38.8,18.3,38.8,44.7v59.3c0,23.3-3.9,48.3-39.2,48.3h-30.1V168.4z M155.9,303.1h8.2
			c16.7,0,19.9-10.1,19.9-27.6v-64.3c0-15.5-2.8-25.3-19.9-25.3h-8.2V303.1z"/>
		<path class="st0" d="M222.9,168.4h29.2c25.3,0,34.9,12.3,34.9,34v6.2c0,21.4-7.1,27.8-14.2,30.8c7.5,2.5,17.1,8.9,17.1,30.6v11.4
			c0,26-10.1,39.5-36.3,39.5h-30.7V168.4z M250.3,231.4c13.5,0,17.3-4.6,17.3-20.8v-6.4c0-13-4.6-18.7-16.7-18.7h-8.2v45.8
			L250.3,231.4L250.3,231.4z M242.8,303.8h8.7c14.6,0,18.5-6.9,18.5-23v-10.5c0-15.5-4.8-22.1-19.6-22.1h-7.5L242.8,303.8
			L242.8,303.8z"/>
	</g>
	<g>
		<path class="st0" d="M30,417.3v48.9h-6.6v-48.9H30z"/>
		<path class="st0" d="M43.5,454.6v1.8c0,2.9,1,4.9,3.5,4.9c2.4,0,3.4-1.5,3.4-4.4s-0.9-4.6-5.4-7.6c-5.1-3.3-7.6-6-7.6-11.4
			c0-6,3.2-10,9.5-10c6.9,0,9.5,4.1,9.5,10.4v1.6h-6.3v-2.2c0-2.9-0.9-4.3-3.1-4.3c-2.1,0-3,1.6-3,3.9c0,2.4,0.8,3.5,4.4,5.9
			c6.2,4,8.6,6.6,8.6,12.8c0,7.1-3.4,10.7-10.2,10.7c-8.1,0-10-5.1-10-10.5v-1.7L43.5,454.6L43.5,454.6z"/>
		<path class="st0" d="M63.6,466.2v-51h6.5v51H63.6z"/>
		<path class="st0" d="M97.1,459c0,2.4,0,5.9,0.2,7.2h-6c-0.2-0.8-0.5-2.4-0.5-2.9c-1.3,2.5-3.5,3.5-6.2,3.5
			c-5.6,0-7.8-5.1-7.8-10.9v-0.7c0-9,5.9-11.7,12.6-11.7h1.2v-5.3c0-3.2-0.5-5-3-5c-2.5,0-3.2,1.9-3.2,4.6v0.8H78V438
			c0-5.4,2.1-10.1,9.8-10.1c7,0,9.3,4.1,9.3,9.9L97.1,459L97.1,459z M90.8,448.7h-1.6c-3.8,0-6.2,1.6-6.2,6.5v0.6c0,3,1,5.2,3.6,5.2
			c3,0,4.1-2.1,4.1-7.5L90.8,448.7L90.8,448.7z"/>
		<path class="st0" d="M106,439.5c0-7.3,0-9.2-0.1-10.9h6.2c0.2,1.1,0.2,2.1,0.3,3.4c1.2-2.5,3.4-4,6.5-4c3,0,5.1,1.3,6,4.2
			c1.3-2.2,3.2-4.2,7.1-4.2c4,0,7.3,1.9,7.3,9.2v29h-6.6v-27.8c0-2.8-0.7-4.6-3.1-4.6c-3,0-3.8,2.5-3.8,6.4v25.9h-6.6v-27.5
			c0-3.8-1.1-4.8-3.2-4.8c-3,0-3.7,2.6-3.7,6.5v25.9H106L106,439.5L106,439.5z"/>
		<path class="st0" d="M148,415.2h6.6v7.9H148V415.2z M148,428.6h6.5v37.6H148V428.6L148,428.6z"/>
		<path class="st0" d="M182.1,454v0.5c0,6.7-1.7,12.3-10.1,12.3c-8.1,0-9.8-5.5-9.8-13.3v-13.6c0-6.2,2.2-12,10.2-12
			c8.6,0,9.7,6.2,9.7,11.1v1.5h-6.5V439c0-3.2-0.5-5.5-3.3-5.5c-2.5,0-3.5,1.9-3.5,5.7v16.3c0,3,0.6,5.8,3.5,5.8
			c2.7,0,3.3-2,3.3-5.7V454L182.1,454L182.1,454z"/>
		<path class="st0" d="M201.2,417.3h9.8c10.5,0,12.5,5.9,12.5,14.4v19.1c0,7.5-1.3,15.5-12.6,15.5h-9.7V417.3z M207.7,460.5h2.7
			c5.4,0,6.4-3.2,6.4-8.9V431c0-5-0.9-8.1-6.4-8.1h-2.7V460.5z"/>
		<path class="st0" d="M237,449v5.8c0,3.3,0.7,6.5,3.9,6.5c3.2,0,3.8-2.8,3.8-5.9v-0.2h6.3v0.2c0,4.1-0.9,11.4-10,11.4
			c-8.9,0-10.5-5.7-10.5-13.3v-13.1c0-5.4,1.9-12.5,10.5-12.5c7.7,0,10.1,5.4,10.1,12.5v8.5H237z M244.8,443.8v-4.3
			c0-3.5-0.7-6-3.8-6c-3,0-4,2.2-4,6.1v4.2L244.8,443.8L244.8,443.8z"/>
		<path class="st0" d="M262.9,428.6c1.2,7,3.8,22.5,4.8,30.3h0.1c0.7-7.4,3.8-22.9,5-30.3h6.5l-8.1,37.6h-7.4l-7.9-37.6H262.9z"/>
		<path class="st0" d="M290.5,449v5.8c0,3.3,0.7,6.5,3.9,6.5c3.2,0,3.8-2.8,3.8-5.9v-0.2h6.3v0.2c0,4.1-0.9,11.4-10,11.4
			c-8.9,0-10.5-5.7-10.5-13.3v-13.1c0-5.4,1.9-12.5,10.5-12.5c7.7,0,10.1,5.4,10.1,12.5v8.5H290.5z M298.3,443.8v-4.3
			c0-3.5-0.7-6-3.8-6c-3,0-4,2.2-4,6.1v4.2L298.3,443.8L298.3,443.8z"/>
		<path class="st0" d="M312.1,466.2v-51h6.5v51H312.1z"/>
		<path class="st0" d="M347.4,439.8v15c0,8.1-4,12-10.6,12c-6.8,0-10.5-4-10.5-12v-15.3c0-7.9,4.3-11.6,10.7-11.6
			C343.6,428,347.4,432.1,347.4,439.8z M332.9,439.4V455c0,3.5,1.1,5.9,4.1,5.9c2.7,0,3.9-1.9,3.9-6v-15.6c0-3.2-1-5.7-4-5.7
			C334.1,433.8,332.9,435.8,332.9,439.4z"/>
		<path class="st0" d="M355.1,439.4c0-5.1,0-8.5,0-10.9h6.2c0.2,0.8,0.3,2.4,0.3,3.8c1-2.4,3.1-4.4,6.8-4.4c5.3,0,7.8,3.6,7.8,11
			v15.7c0,8.5-3,12.2-8.4,12.2c-3.5,0-5.2-1.7-6.1-3.5v15.5h-6.5V439.4z M361.6,453.4c0,4.1,0.7,7.4,4.1,7.4c3,0,3.9-2.3,3.9-6.2
			v-15.3c0-3.9-1.3-5.5-3.6-5.5c-3.1,0-4.3,2.3-4.3,6.8L361.6,453.4L361.6,453.4z"/>
		<path class="st0" d="M383.8,439.5c0-7.3,0-9.2,0-10.9h6.2c0.2,1.1,0.2,2.1,0.3,3.4c1.2-2.5,3.4-4,6.5-4c3,0,5.1,1.3,6,4.2
			c1.3-2.2,3.2-4.2,7.1-4.2c4,0,7.3,1.9,7.3,9.2v29h-6.6v-27.8c0-2.8-0.7-4.6-3.1-4.6c-3,0-3.8,2.5-3.8,6.4v25.9h-6.6v-27.5
			c0-3.8-1.1-4.8-3.2-4.8c-3,0-3.7,2.6-3.7,6.5v25.9h-6.5V439.5z"/>
		<path class="st0" d="M431.2,449v5.8c0,3.3,0.7,6.5,3.9,6.5c3.2,0,3.8-2.8,3.8-5.9v-0.2h6.4v0.2c0,4.1-0.9,11.4-10,11.4
			c-8.9,0-10.5-5.7-10.5-13.3v-13.1c0-5.4,1.9-12.5,10.5-12.5c7.7,0,10.1,5.4,10.1,12.5v8.5H431.2z M439,443.8v-4.3
			c0-3.5-0.7-6-3.8-6c-3,0-4,2.2-4,6.1v4.2L439,443.8L439,443.8z"/>
		<path class="st0" d="M452.8,440.1c0-7.6,0-9.8,0-11.6h6.2c0.1,0.9,0.3,2.3,0.3,3.6c1.1-2.4,3.2-4.2,6.9-4.2c4.4,0,7.6,2.6,7.6,9.6
			v28.6h-6.6v-27.3c0-3.5-1.2-5-3.5-5c-2.9,0-4.3,1.5-4.3,7.4v24.9h-6.5L452.8,440.1L452.8,440.1z"/>
		<path class="st0" d="M479,428.6h4.2v-9.2h6.5v9.2h5v5.8h-5v23.5c0,1.9,0.3,3.5,2.7,3.5c0.7,0,1.7,0,2.1-0.2v5
			c-1.2,0.6-3,0.7-4.3,0.7c-4.3,0-7-1.5-7-7.7v-24.7H479V428.6z"/>
		<path class="st0" d="M512.7,417.3h9.4c8.1,0,11.2,4,11.2,10.9v2c0,6.9-2.3,9-4.6,9.9c2.4,0.8,5.5,2.9,5.5,9.8v3.7
			c0,8.4-3.2,12.7-11.7,12.7h-9.9L512.7,417.3L512.7,417.3z M521.5,437.5c4.3,0,5.6-1.5,5.6-6.7v-2.1c0-4.2-1.5-6-5.4-6H519v14.7
			H521.5z M519,460.8h2.8c4.7,0,6-2.2,6-7.4V450c0-5-1.6-7.1-6.3-7.1h-2.4L519,460.8L519,460.8z"/>
		<path class="st0" d="M560.6,459c0,2.4,0,5.9,0.2,7.2h-6c-0.2-0.8-0.5-2.4-0.5-2.9c-1.3,2.5-3.5,3.5-6.2,3.5
			c-5.6,0-7.8-5.1-7.8-10.9v-0.7c0-9,5.9-11.7,12.6-11.7h1.2v-5.3c0-3.2-0.5-5-3-5c-2.5,0-3.2,1.9-3.2,4.6v0.8h-6.5V438
			c0-5.4,2.1-10.1,9.8-10.1c7,0,9.3,4.1,9.3,9.9L560.6,459L560.6,459z M554.2,448.7h-1.6c-3.8,0-6.2,1.6-6.2,6.5v0.6
			c0,3,1,5.2,3.6,5.2c3,0,4.1-2.1,4.1-7.5L554.2,448.7L554.2,448.7z"/>
		<path class="st0" d="M569.5,440.1c0-7.6,0-9.8,0-11.6h6.2c0.2,0.9,0.3,2.3,0.3,3.6c1.1-2.4,3.2-4.2,6.9-4.2c4.4,0,7.6,2.6,7.6,9.6
			v28.6h-6.6v-27.3c0-3.5-1.2-5-3.5-5c-2.9,0-4.3,1.5-4.3,7.4v24.9h-6.5L569.5,440.1L569.5,440.1z"/>
		<path class="st0" d="M605.7,445.3L605.7,445.3c1.8-4.2,5.4-12.1,7.5-16.8h6.9c-2.5,5.1-4.8,9.5-7.1,13.9l7.9,23.8h-7.2l-5.1-17.4
			c-0.8,1.4-2.2,4.3-2.9,5.6v11.9h-6.5v-51h6.5L605.7,445.3L605.7,445.3z"/>
	</g>
	<g>
		<path class="st0" d="M33.4,355.3c0.9,0,1.6-0.3,2.2-0.9c0.6-0.6,0.9-1.3,0.9-2.1c0-0.9-0.3-1.6-0.9-2.1c-0.6-0.6-1.4-0.9-2.2-0.9
			c-0.9,0-1.6,0.3-2.2,0.9c-0.6,0.6-0.9,1.3-0.9,2.1s0.3,1.6,0.9,2.1C31.8,355,32.5,355.3,33.4,355.3z"/>
		<path class="st0" d="M44.3,355.3c0.9,0,1.6-0.3,2.3-0.9c0.6-0.6,0.9-1.3,0.9-2.1s-0.3-1.6-0.9-2.2c-0.6-0.6-1.4-0.9-2.3-0.9
			s-1.6,0.3-2.2,0.9c-0.6,0.6-0.9,1.3-0.9,2.1c0,0.9,0.3,1.6,0.9,2.1C42.7,355,43.4,355.3,44.3,355.3z"/>
		<path class="st0" d="M61,400.3c-0.9,0-1.6,0.3-2.2,0.9s-0.9,1.3-0.9,2.2c0,0.9,0.3,1.6,0.9,2.1c0.6,0.6,1.4,0.8,2.2,0.8
			s1.6-0.3,2.2-0.8c0.6-0.6,0.9-1.3,0.9-2.1c0-0.9-0.3-1.6-0.9-2.2S61.8,400.3,61,400.3z"/>
		<path class="st0" d="M71.9,400.3c-0.9,0-1.6,0.3-2.2,0.9s-0.9,1.3-0.9,2.2c0,0.9,0.3,1.6,0.9,2.1c0.6,0.6,1.4,0.8,2.2,0.8
			c0.9,0,1.6-0.3,2.3-0.8c0.6-0.6,0.9-1.3,0.9-2.1c0-0.9-0.3-1.6-0.9-2.2C73.5,400.6,72.8,400.3,71.9,400.3z"/>
		<path class="st0" d="M131.9,357.5c0.9,0,1.7-0.3,2.3-0.9c0.6-0.6,0.9-1.3,0.9-2.2c0-0.9-0.3-1.6-0.9-2.2s-1.4-0.9-2.3-0.9
			c-0.9,0-1.7,0.3-2.3,0.9c-0.6,0.6-0.9,1.3-0.9,2.2c0,0.9,0.3,1.6,0.9,2.2C130.2,357.2,131,357.5,131.9,357.5z"/>
		<path class="st0" d="M159.6,357.5c0.9,0,1.7-0.3,2.3-0.9c0.6-0.6,0.9-1.3,0.9-2.1c0-0.9-0.3-1.6-0.9-2.2c-0.6-0.6-1.4-0.9-2.3-0.9
			s-1.6,0.3-2.2,0.9c-0.6,0.6-0.9,1.3-0.9,2.1c0,0.9,0.3,1.6,0.9,2.1C158,357.2,158.7,357.5,159.6,357.5z"/>
		<path class="st0" d="M148.7,357.5c0.9,0,1.6-0.3,2.2-0.9c0.6-0.6,0.9-1.3,0.9-2.1c0-0.9-0.3-1.6-0.9-2.1c-0.6-0.6-1.4-0.9-2.2-0.9
			s-1.6,0.3-2.2,0.9c-0.6,0.6-0.9,1.3-0.9,2.1c0,0.9,0.3,1.6,0.9,2.1C147.1,357.2,147.8,357.5,148.7,357.5z"/>
		<path class="st0" d="M196,389.9h-7.4h-1.2h-7.4v-41.3h-4.5v41.3h-7.4h-1.1h-10.4v-26.1h-4.5v26.1h-10.8h-1.2h-5.9v-26.1h-4.5v26.1
			h-5.6h-1.2h-7c1-2.1,1.4-4.3,1.4-6.7c0-4.7-1.6-8.6-4.7-11.7c-3.2-3.2-7-4.8-11.6-4.8c-4.6,0-8.5,1.6-11.6,4.8
			c-3.1,3.2-4.7,7.1-4.7,11.7c0,2.3,0.5,4.5,1.4,6.7h-5.9h-1.1H69.1v-26.1h-4.5V390H53.7h-1.1h-6v-28.9h-4.5v2.8h-2.6
			c-5.6,0-10.1,1.5-13.5,4.4c-3.4,2.8-5.1,6.5-5.1,11c0,5.1,1.8,8.9,5.3,11.4c3.6,2.6,8,3.9,13.3,3.9h13.1h1.1h25.8h1.1h8.8
			c3.2,3.4,7.2,5.1,12,5.1c4.8,0,8.8-1.7,12-5.1h9.9h1.2h16h1.2h25.7h1.1h19.3h1.2h11.9v-45.8H196L196,389.9L196,389.9z M42.1,389.9
			h-4.5c-3.5,0-6.4-1-8.8-2.9s-3.5-4.5-3.5-7.8c0-3.3,1.3-5.9,3.7-7.9s5.3-3.1,8.6-3.1h4.5V389.9z M109.7,391.6
			c-2.3,2.3-5.1,3.4-8.5,3.4c-3.3,0-6.1-1.2-8.3-3.5c-2.2-2.3-3.3-5.1-3.3-8.4s1.1-6.1,3.3-8.4c2.2-2.3,5-3.5,8.4-3.5
			c3.4,0,6.2,1.2,8.5,3.4s3.4,5.1,3.4,8.5C113.1,386.6,112,389.4,109.7,391.6z"/>
		<path class="st0" d="M239.4,380.1c0.9,0,1.7-0.3,2.3-0.9c0.6-0.6,0.9-1.3,0.9-2.2s-0.3-1.6-0.9-2.2c-0.6-0.6-1.4-0.9-2.3-0.9
			c-0.9,0-1.7,0.3-2.3,0.9c-0.6,0.6-0.9,1.3-0.9,2.2s0.3,1.6,0.9,2.2C237.7,379.8,238.5,380.1,239.4,380.1z"/>
		<path class="st0" d="M239.4,390.8c0.9,0,1.7-0.3,2.3-0.9c0.6-0.6,0.9-1.3,0.9-2.2s-0.3-1.6-0.9-2.2c-0.6-0.6-1.4-0.9-2.3-0.9
			c-0.9,0-1.7,0.3-2.3,0.9c-0.6,0.6-0.9,1.3-0.9,2.2s0.3,1.6,0.9,2.2C237.7,390.6,238.5,390.8,239.4,390.8z"/>
		<path class="st0" d="M300.3,366.8c-4.6,0-8.5,1.6-11.6,4.8s-4.7,7.1-4.7,11.7c0,2.3,0.5,4.5,1.4,6.7h-5.9h-1.2h-5.9v-26.1h-10.1
			c-3.7,0-6.7,0.9-8.8,2.7c-2.7,2.3-4,5.5-4,9.7V397h-13.2c-3.3,0-6.6-0.9-9.9-2.6l-2.1,4c3.9,2.1,8.3,3.1,13.4,3.1h16.2v-26.1
			c0-2.3,0.8-4.1,2.3-5.3c1.6-1.2,3.6-1.8,6-1.8h5.5v26.1h10.4h1.2h8.8c3.2,3.4,7.1,5.1,11.8,5.1c4.7,0,8.6-1.6,11.8-4.7
			c3.2-3.1,4.8-7,4.8-11.6c0-4.7-1.6-8.6-4.7-11.8C308.7,368.4,304.9,366.8,300.3,366.8z M308.6,391.6c-2.3,2.3-5.1,3.4-8.5,3.4
			s-6.1-1.2-8.3-3.5c-2.2-2.3-3.3-5.1-3.3-8.4s1.1-6.1,3.3-8.4c2.2-2.3,5-3.5,8.4-3.5c3.4,0,6.2,1.2,8.5,3.4
			c2.3,2.3,3.4,5.1,3.4,8.5C312.1,386.6,310.9,389.4,308.6,391.6z"/>
		<rect x="331.3" y="355.1" class="st0" width="4.5" height="31.8"/>
		<path class="st0" d="M417,381.9c0,2.7-0.7,4.8-2.2,6.3c-1.5,1.6-3.5,2.3-6.2,2.3c-2.7,0-4.9-0.8-6.5-2.3c-1.7-1.5-2.6-3.4-2.6-5.7
			v-16h-4.5v15.7c0,2.6-0.8,4.5-2.2,5.8s-3.3,1.9-5.5,1.9h-8.8v-23.3h-4.5v23.3h-11.9c-2.7,0-4.8-0.4-6.3-1.2
			c-1.6-0.8-2.8-2.1-3.7-3.7c0.5-1.6,0.8-3.2,0.8-4.8V349h4.2v-4.5h-8.7v35.7c0,3.3-1,5.8-3,7.4s-4.6,2.4-7.9,2.4h-15.6l0.6,4.5H336
			c7.4,0,12.3-2,14.9-6.1c0.9,1.8,2.2,3.3,3.9,4.4c1.5,1,3.7,1.5,6.4,1.6v0h26.3c4.4,0,7.7-1.7,10-5.2c2.3,3.8,6.1,5.8,11.2,5.8
			c8.7,0,13-4.6,13-13.8v-20.6H417L417,381.9L417,381.9z"/>
		<rect x="437.1" y="355.1" class="st0" width="4.5" height="31.8"/>
		<path class="st0" d="M433.7,402.3c0,4.6,2.1,6.8,6.4,6.8h2.3v-2.6h-1.9c-2.4,0-3.5-1.1-3.5-3.2h7.2v-3h-10.5V402.3z"/>
		<path class="st0" d="M454.3,380.2c0,3.3-1,5.8-3,7.4s-4.6,2.4-7.9,2.4H428l0.6,4.5h13.3c5.8,0,10.1-1.3,12.9-3.7
			c2.8-2.5,4.2-6,4.2-10.5V349h4.2v-4.5h-8.7L454.3,380.2L454.3,380.2z"/>
		<rect x="474.4" y="348.7" class="st0" width="4.5" height="45.8"/>
		<path class="st0" d="M534.9,373.2h-8.4V371c0-1.1,0.3-1.9,0.8-2.4c0.5-0.6,1.3-0.8,2.5-0.8h3.3v-2.6h-3.4c-2.2,0-3.8,0.6-4.8,1.7
			c-1.1,1.1-1.6,2.8-1.6,5.2v4.1h11.6V373.2z"/>
		<path class="st0" d="M563.4,357.5c0.9,0,1.7-0.3,2.3-0.9c0.6-0.6,0.9-1.3,0.9-2.2c0-0.9-0.3-1.6-0.9-2.2c-0.6-0.6-1.4-0.9-2.3-0.9
			c-0.9,0-1.7,0.3-2.3,0.9c-0.6,0.6-0.9,1.3-0.9,2.2c0,0.9,0.3,1.6,0.9,2.2C561.7,357.2,562.5,357.5,563.4,357.5z"/>
		<path class="st0" d="M580.7,400.2c-0.9,0-1.7,0.3-2.3,0.9c-0.6,0.6-1,1.3-1,2.2s0.3,1.6,0.9,2.2c0.6,0.6,1.4,0.9,2.3,0.9
			c0.9,0,1.7-0.3,2.3-0.9c0.6-0.6,0.9-1.3,0.9-2.2c0-0.9-0.3-1.6-0.9-2.2C582.3,400.5,581.6,400.2,580.7,400.2z"/>
		<path class="st0" d="M597.3,389.9H590h-1.2h-5.9v-26.1h-4.5v26.1h-5.5h-1.2h-5.9v-26.1h-4.5v26.1h-3.7h-3h-7v-41.3h-4.5v41.3
			h-18.4c-3.8,0-6.7-0.8-8.7-2.4c-2-1.6-3-4.2-3-7.7v-10.8h-4.5v11.4c0,1.9,0.4,3.7,1,5.6c0.7,1.9,1.7,3.5,3.2,4.8
			c1.4,1.3,3.1,2.2,5.1,2.8c2,0.6,4.5,0.9,7.7,0.9h29.1h3h14.1h1.2h15.9h1.2h11.9v-45.8h-4.5L597.3,389.9L597.3,389.9z"/>
		<rect x="614.8" y="348.7" class="st0" width="4.5" height="45.8"/>
	</g>
</g>
<g>
	
		<linearGradient id="SVGID_1_" gradientUnits="userSpaceOnUse" x1="412.8406" y1="417.8546" x2="542.6058" y2="417.8546" gradientTransform="matrix(1 0 0 -1 0 651.89)">
		<stop  offset="0" style="stop-color:#42AB37"/>
		<stop  offset="0.487" style="stop-color:#23706B"/>
		<stop  offset="0.8389" style="stop-color:#234772"/>
		<stop  offset="1" style="stop-color:#243772"/>
	</linearGradient>
	<path class="st1" d="M473.5,234.1c0,2.3-0.8,4.3-2,6l9.7,14.2l22.4,0.2l4.8,0.1l1.6-3.5l7.9-17.1l-14.1-19.3l-25-1.1l-8.4,13.3
		C472.3,228.7,473.5,231.3,473.5,234.1z"/>
	
		<linearGradient id="SVGID_2_" gradientUnits="userSpaceOnUse" x1="412.8406" y1="436.5827" x2="542.6058" y2="436.5827" gradientTransform="matrix(1 0 0 -1 0 651.89)">
		<stop  offset="0" style="stop-color:#42AB37"/>
		<stop  offset="0.487" style="stop-color:#23706B"/>
		<stop  offset="0.8389" style="stop-color:#234772"/>
		<stop  offset="1" style="stop-color:#243772"/>
	</linearGradient>
	<path class="st2" d="M463.3,224c1.3,0,2.4,0.3,3.5,0.7l8.2-13l-12.2-14L459,198l-19,1.4L427,216.2l10.4,16.7l9.7-0.8l6.6-0.5
		C454.7,227.2,458.6,224,463.3,224z"/>
	
		<linearGradient id="SVGID_3_" gradientUnits="userSpaceOnUse" x1="412.8406" y1="393.2505" x2="542.6058" y2="393.2505" gradientTransform="matrix(1 0 0 -1 0 651.89)">
		<stop  offset="0" style="stop-color:#42AB37"/>
		<stop  offset="0.487" style="stop-color:#23706B"/>
		<stop  offset="0.8389" style="stop-color:#234772"/>
		<stop  offset="1" style="stop-color:#243772"/>
	</linearGradient>
	<path class="st3" d="M447.6,281.4l16.7-0.5l1-1.9l12.3-22.6l-9.2-13.6c-1.5,0.9-3.2,1.4-5.1,1.4c-5,0-9.2-3.7-10-8.5l-6,0.5
		l-9.9,0.8l-13.4,22.4l6.1,10.8c1.2-0.3,2.4-0.5,3.6-0.5C440.7,269.8,446.5,274.8,447.6,281.4z"/>
	
		<linearGradient id="SVGID_4_" gradientUnits="userSpaceOnUse" x1="412.8406" y1="342.6421" x2="542.6058" y2="342.6421" gradientTransform="matrix(1 0 0 -1 0 651.89)">
		<stop  offset="0" style="stop-color:#42AB37"/>
		<stop  offset="0.487" style="stop-color:#23706B"/>
		<stop  offset="0.8389" style="stop-color:#234772"/>
		<stop  offset="1" style="stop-color:#243772"/>
	</linearGradient>
	<path class="st4" d="M447.8,285.5c-0.9,7-6.8,12.4-14,12.4c-1,0-1.9-0.1-2.8-0.3l-7.3,14.8h0l12.6,21H467l13.2-22.8l-15.8-25.6
		L447.8,285.5z"/>
	
		<linearGradient id="SVGID_5_" gradientUnits="userSpaceOnUse" x1="412.8406" y1="369.4215" x2="542.6058" y2="369.4215" gradientTransform="matrix(1 0 0 -1 0 651.89)">
		<stop  offset="0" style="stop-color:#42AB37"/>
		<stop  offset="0.487" style="stop-color:#23706B"/>
		<stop  offset="0.8389" style="stop-color:#234772"/>
		<stop  offset="1" style="stop-color:#243772"/>
	</linearGradient>
	<polygon class="st5" points="508.4,258.6 505.8,258.6 481.3,258.4 468.4,282.1 468,282.8 482.6,306.5 510.2,305.7 522,281.3 
		515.2,269.9 	"/>
	
		<linearGradient id="SVGID_6_" gradientUnits="userSpaceOnUse" x1="412.8406" y1="434.6574" x2="542.6058" y2="434.6574" gradientTransform="matrix(1 0 0 -1 0 651.89)">
		<stop  offset="0" style="stop-color:#42AB37"/>
		<stop  offset="0.487" style="stop-color:#23706B"/>
		<stop  offset="0.8389" style="stop-color:#234772"/>
		<stop  offset="1" style="stop-color:#243772"/>
	</linearGradient>
	<polygon class="st6" points="518.7,200.5 514.7,199.7 510.4,207.1 507.3,212.5 521.4,231.7 531.8,233.2 542.9,234.8 546.9,222.5 
		547.6,220.1 533.8,203.4 	"/>
	
		<linearGradient id="SVGID_7_" gradientUnits="userSpaceOnUse" x1="412.8406" y1="394.3757" x2="542.6058" y2="394.3757" gradientTransform="matrix(1 0 0 -1 0 651.89)">
		<stop  offset="0" style="stop-color:#42AB37"/>
		<stop  offset="0.487" style="stop-color:#23706B"/>
		<stop  offset="0.8389" style="stop-color:#234772"/>
		<stop  offset="1" style="stop-color:#243772"/>
	</linearGradient>
	<path class="st7" d="M547.5,258.4c0-2.7,1.4-5.1,3.5-6.5l-7.7-12.5l-0.3-0.5l-11.2-1.6l-10.5-1.5l-8.8,19l-0.7,1.5l6.8,11.4
		l6.8,11.4l22.2,0l0.7-1.9l4.3-11.5C549.8,264.7,547.5,261.8,547.5,258.4z"/>
	
		<linearGradient id="SVGID_8_" gradientUnits="userSpaceOnUse" x1="412.8406" y1="411.5786" x2="542.6058" y2="411.5786" gradientTransform="matrix(1 0 0 -1 0 651.89)">
		<stop  offset="0" style="stop-color:#42AB37"/>
		<stop  offset="0.487" style="stop-color:#23706B"/>
		<stop  offset="0.8389" style="stop-color:#234772"/>
		<stop  offset="1" style="stop-color:#243772"/>
	</linearGradient>
	<path class="st8" d="M563.1,257.3l5.2,0.6l4.5,0.5l2.6-14.3l-9.2-15.3l-1.7-2.8l-1.9-0.6l-11.3-3.2l-0.8,2.4l-4,12.2l0.4,0.6
		l8.2,13.3c0.1,0,0.2,0,0.3,0C559.3,250.6,562.5,253.5,563.1,257.3z"/>
	
		<linearGradient id="SVGID_9_" gradientUnits="userSpaceOnUse" x1="412.8406" y1="370.1716" x2="542.6058" y2="370.1716" gradientTransform="matrix(1 0 0 -1 0 651.89)">
		<stop  offset="0" style="stop-color:#42AB37"/>
		<stop  offset="0.487" style="stop-color:#23706B"/>
		<stop  offset="0.8389" style="stop-color:#234772"/>
		<stop  offset="1" style="stop-color:#243772"/>
	</linearGradient>
	<path class="st9" d="M572.9,262.6l-4.7-0.5l-5.7-0.6c-1,2.3-3,4-5.4,4.6l-3.8,10l-2,5.2l10,20.8l14.3-1.5l5.2-18.6L572.9,262.6z"/>
	
		<linearGradient id="SVGID_10_" gradientUnits="userSpaceOnUse" x1="412.8406" y1="388.7498" x2="542.6058" y2="388.7498" gradientTransform="matrix(1 0 0 -1 0 651.89)">
		<stop  offset="0" style="stop-color:#42AB37"/>
		<stop  offset="0.487" style="stop-color:#23706B"/>
		<stop  offset="0.8389" style="stop-color:#234772"/>
		<stop  offset="1" style="stop-color:#243772"/>
	</linearGradient>
	<polygon class="st10" points="579.1,246.6 576.6,260.4 584.6,279.6 591.1,279.7 592.3,265.5 585.9,249.5 582.2,247.9 	"/>
	
		<linearGradient id="SVGID_11_" gradientUnits="userSpaceOnUse" x1="412.8406" y1="400.8517" x2="542.6058" y2="400.8517" gradientTransform="matrix(1 0 0 -1 0 651.89)">
		<stop  offset="0" style="stop-color:#42AB37"/>
		<stop  offset="0.487" style="stop-color:#23706B"/>
		<stop  offset="0.8389" style="stop-color:#234772"/>
		<stop  offset="1" style="stop-color:#243772"/>
	</linearGradient>
	<polygon class="st11" points="595.4,261.7 594.5,256.6 591.3,246.7 589.3,240.7 588.9,240.3 589.5,247.4 	"/>
	
		<linearGradient id="SVGID_12_" gradientUnits="userSpaceOnUse" x1="412.8406" y1="369.2465" x2="542.6058" y2="369.2465" gradientTransform="matrix(1 0 0 -1 0 651.89)">
		<stop  offset="0" style="stop-color:#42AB37"/>
		<stop  offset="0.487" style="stop-color:#23706B"/>
		<stop  offset="0.8389" style="stop-color:#234772"/>
		<stop  offset="1" style="stop-color:#243772"/>
	</linearGradient>
	<polygon class="st12" points="596.7,269 596.5,268.9 596.3,268.8 595.1,281.7 598.3,296.5 598.7,296.3 599.6,283.4 	"/>
	
		<linearGradient id="SVGID_13_" gradientUnits="userSpaceOnUse" x1="412.8406" y1="350.2683" x2="542.6058" y2="350.2683" gradientTransform="matrix(1 0 0 -1 0 651.89)">
		<stop  offset="0" style="stop-color:#42AB37"/>
		<stop  offset="0.487" style="stop-color:#23706B"/>
		<stop  offset="0.8389" style="stop-color:#234772"/>
		<stop  offset="1" style="stop-color:#243772"/>
	</linearGradient>
	<polygon class="st13" points="584.9,283.8 584.8,283.8 579.7,302.1 590.6,319.4 593.1,314.7 594.5,299.2 591.3,283.9 	"/>
	
		<linearGradient id="SVGID_14_" gradientUnits="userSpaceOnUse" x1="412.8406" y1="443.8339" x2="542.6058" y2="443.8339" gradientTransform="matrix(1 0 0 -1 0 651.89)">
		<stop  offset="0" style="stop-color:#42AB37"/>
		<stop  offset="0.487" style="stop-color:#23706B"/>
		<stop  offset="0.8389" style="stop-color:#234772"/>
		<stop  offset="1" style="stop-color:#243772"/>
	</linearGradient>
	<polygon class="st14" points="537.3,201.1 551.2,217.9 564.1,221.5 565,214.1 557,204.8 552.7,199.7 540.1,194.6 	"/>
	
		<linearGradient id="SVGID_15_" gradientUnits="userSpaceOnUse" x1="412.8406" y1="446.2093" x2="542.6058" y2="446.2093" gradientTransform="matrix(1 0 0 -1 0 651.89)">
		<stop  offset="0" style="stop-color:#42AB37"/>
		<stop  offset="0.487" style="stop-color:#23706B"/>
		<stop  offset="0.8389" style="stop-color:#234772"/>
		<stop  offset="1" style="stop-color:#243772"/>
	</linearGradient>
	<polygon class="st15" points="568.6,211.9 573.3,214.7 573.1,213.9 559.2,198.7 556.1,196.6 556.1,197.2 560.7,202.6 	"/>
	
		<linearGradient id="SVGID_16_" gradientUnits="userSpaceOnUse" x1="412.8406" y1="421.0551" x2="542.6058" y2="421.0551" gradientTransform="matrix(1 0 0 -1 0 651.89)">
		<stop  offset="0" style="stop-color:#42AB37"/>
		<stop  offset="0.487" style="stop-color:#23706B"/>
		<stop  offset="0.8389" style="stop-color:#234772"/>
		<stop  offset="1" style="stop-color:#243772"/>
	</linearGradient>
	<polygon class="st16" points="569,217 568.3,224.1 578.9,242 581.7,243.2 585.1,244.6 584.4,236.5 584.3,235.9 579.1,227.4 
		575.1,220.7 571.7,218.7 	"/>
	
		<linearGradient id="SVGID_17_" gradientUnits="userSpaceOnUse" x1="412.8406" y1="454.6107" x2="542.6058" y2="454.6107" gradientTransform="matrix(1 0 0 -1 0 651.89)">
		<stop  offset="0" style="stop-color:#42AB37"/>
		<stop  offset="0.487" style="stop-color:#23706B"/>
		<stop  offset="0.8389" style="stop-color:#234772"/>
		<stop  offset="1" style="stop-color:#243772"/>
	</linearGradient>
	<path class="st17" d="M493.8,185.3l-16.7-1.3h-0.2l-10.3,11.6l12.1,13.9l25,1.1l3.2-5.4l4.2-7.3l-6.9-6.4l-2.8-2.6
		c-0.7,0.3-1.3,0.4-2.1,0.4C496.7,189.2,494.6,187.6,493.8,185.3z"/>
	
		<linearGradient id="SVGID_18_" gradientUnits="userSpaceOnUse" x1="412.8406" y1="463.4622" x2="542.6058" y2="463.4622" gradientTransform="matrix(1 0 0 -1 0 651.89)">
		<stop  offset="0" style="stop-color:#42AB37"/>
		<stop  offset="0.487" style="stop-color:#23706B"/>
		<stop  offset="0.8389" style="stop-color:#234772"/>
		<stop  offset="1" style="stop-color:#243772"/>
	</linearGradient>
	<path class="st18" d="M504.5,186l3.4,3.2l6.8,6.3l19.1,3.7l2.8-6.6L524,181.8l-17.1-4l-0.1,0.2l-2.3,2.6c0.5,0.9,0.8,1.8,0.8,2.8
		C505.1,184.3,504.9,185.2,504.5,186z"/>
	
		<linearGradient id="SVGID_19_" gradientUnits="userSpaceOnUse" x1="412.8406" y1="465.5125" x2="542.6058" y2="465.5125" gradientTransform="matrix(1 0 0 -1 0 651.89)">
		<stop  offset="0" style="stop-color:#42AB37"/>
		<stop  offset="0.487" style="stop-color:#23706B"/>
		<stop  offset="0.8389" style="stop-color:#234772"/>
		<stop  offset="1" style="stop-color:#243772"/>
	</linearGradient>
	<polygon class="st19" points="552,194.9 552,193.7 540.8,184.4 529.7,177.9 528,179.7 540,190.1 	"/>
	
		<linearGradient id="SVGID_20_" gradientUnits="userSpaceOnUse" x1="412.8406" y1="476.8144" x2="542.6058" y2="476.8144" gradientTransform="matrix(1 0 0 -1 0 651.89)">
		<stop  offset="0" style="stop-color:#42AB37"/>
		<stop  offset="0.487" style="stop-color:#23706B"/>
		<stop  offset="0.8389" style="stop-color:#234772"/>
		<stop  offset="1" style="stop-color:#243772"/>
	</linearGradient>
	<path class="st20" d="M474.1,169l-6.4,4.2l9,6.7l17.1,1.4c0.9-2.2,3-3.7,5.5-3.7c0.7,0,1.4,0.2,2,0.4l1.3-1.4l0.5-0.5l-9.5-5.9
		l-19.1-1.2H474.1z"/>
	
		<linearGradient id="SVGID_21_" gradientUnits="userSpaceOnUse" x1="412.8406" y1="486.9661" x2="542.6058" y2="486.9661" gradientTransform="matrix(1 0 0 -1 0 651.89)">
		<stop  offset="0" style="stop-color:#42AB37"/>
		<stop  offset="0.487" style="stop-color:#23706B"/>
		<stop  offset="0.8389" style="stop-color:#234772"/>
		<stop  offset="1" style="stop-color:#243772"/>
	</linearGradient>
	<polygon class="st21" points="474.6,164.8 491.9,165.6 489.9,165.3 472.8,164.2 474.2,164.8 	"/>
	
		<linearGradient id="SVGID_22_" gradientUnits="userSpaceOnUse" x1="412.8406" y1="466.6877" x2="542.6058" y2="466.6877" gradientTransform="matrix(1 0 0 -1 0 651.89)">
		<stop  offset="0" style="stop-color:#42AB37"/>
		<stop  offset="0.487" style="stop-color:#23706B"/>
		<stop  offset="0.8389" style="stop-color:#234772"/>
		<stop  offset="1" style="stop-color:#243772"/>
	</linearGradient>
	<polygon class="st22" points="463.5,175.2 443.7,177.2 432.8,186.9 434.5,189 439.9,195.2 458.8,193.8 462.8,193.5 472.9,182.1 
		472.4,181.7 	"/>
	
		<linearGradient id="SVGID_23_" gradientUnits="userSpaceOnUse" x1="412.8406" y1="482.4153" x2="542.6058" y2="482.4153" gradientTransform="matrix(1 0 0 -1 0 651.89)">
		<stop  offset="0" style="stop-color:#42AB37"/>
		<stop  offset="0.487" style="stop-color:#23706B"/>
		<stop  offset="0.8389" style="stop-color:#234772"/>
		<stop  offset="1" style="stop-color:#243772"/>
	</linearGradient>
	<polygon class="st23" points="443.2,173.1 463.3,171 465.4,169.6 469,167.2 465.7,165.9 446.6,167.7 440.2,171.4 442.9,172.9 	"/>
	
		<linearGradient id="SVGID_24_" gradientUnits="userSpaceOnUse" x1="412.8406" y1="479.5649" x2="542.6058" y2="479.5649" gradientTransform="matrix(1 0 0 -1 0 651.89)">
		<stop  offset="0" style="stop-color:#42AB37"/>
		<stop  offset="0.487" style="stop-color:#23706B"/>
		<stop  offset="0.8389" style="stop-color:#234772"/>
		<stop  offset="1" style="stop-color:#243772"/>
	</linearGradient>
	<polygon class="st24" points="507,173.5 524.3,177.5 525.4,176.3 525.9,175.8 523.9,174.6 500.2,167.1 498.3,168.2 499.5,168.9 	
		"/>
	
		<linearGradient id="SVGID_25_" gradientUnits="userSpaceOnUse" x1="412.8406" y1="447.9596" x2="542.6058" y2="447.9596" gradientTransform="matrix(1 0 0 -1 0 651.89)">
		<stop  offset="0" style="stop-color:#42AB37"/>
		<stop  offset="0.487" style="stop-color:#23706B"/>
		<stop  offset="0.8389" style="stop-color:#234772"/>
		<stop  offset="1" style="stop-color:#243772"/>
	</linearGradient>
	<path class="st25" d="M400,211.9l2.9,6.8l15.2-3.4l5.2-1.2l13.1-16.8l-6-7l-1.1-1.3l-18.7,4.5l-10.1,11.5c0.5,0.9,0.8,1.9,0.8,3
		C401.3,209.5,400.8,210.8,400,211.9z"/>
	
		<linearGradient id="SVGID_26_" gradientUnits="userSpaceOnUse" x1="412.8406" y1="452.1353" x2="542.6058" y2="452.1353" gradientTransform="matrix(1 0 0 -1 0 651.89)">
		<stop  offset="0" style="stop-color:#42AB37"/>
		<stop  offset="0.487" style="stop-color:#23706B"/>
		<stop  offset="0.8389" style="stop-color:#234772"/>
		<stop  offset="1" style="stop-color:#243772"/>
	</linearGradient>
	<path class="st26" d="M395,201.8c0.9,0,1.6,0.2,2.4,0.5l9.5-10.7l-1.6-2.7l-0.3-0.4l-11.4,5.3l-9.8,10.1l-2.6,2.8l0.8,4.4l6.8-2.9
		l0,0C388.7,204.6,391.5,201.8,395,201.8z"/>
	
		<linearGradient id="SVGID_27_" gradientUnits="userSpaceOnUse" x1="412.8406" y1="467.8379" x2="542.6058" y2="467.8379" gradientTransform="matrix(1 0 0 -1 0 651.89)">
		<stop  offset="0" style="stop-color:#42AB37"/>
		<stop  offset="0.487" style="stop-color:#23706B"/>
		<stop  offset="0.8389" style="stop-color:#234772"/>
		<stop  offset="1" style="stop-color:#243772"/>
	</linearGradient>
	<polygon class="st27" points="404.7,184 405.1,183.7 406.1,183 402.4,185.1 402.6,185 	"/>
	
		<linearGradient id="SVGID_28_" gradientUnits="userSpaceOnUse" x1="412.8406" y1="470.3883" x2="542.6058" y2="470.3883" gradientTransform="matrix(1 0 0 -1 0 651.89)">
		<stop  offset="0" style="stop-color:#42AB37"/>
		<stop  offset="0.487" style="stop-color:#23706B"/>
		<stop  offset="0.8389" style="stop-color:#234772"/>
		<stop  offset="1" style="stop-color:#243772"/>
	</linearGradient>
	<polygon class="st28" points="428.7,184.6 439.2,175.6 438.9,175.5 435.7,173.6 419.3,177.9 411.8,183.8 408.6,186.3 410.4,189.4 	
		"/>
	
		<linearGradient id="SVGID_29_" gradientUnits="userSpaceOnUse" x1="412.8406" y1="412.6287" x2="542.6058" y2="412.6287" gradientTransform="matrix(1 0 0 -1 0 651.89)">
		<stop  offset="0" style="stop-color:#42AB37"/>
		<stop  offset="0.487" style="stop-color:#23706B"/>
		<stop  offset="0.8389" style="stop-color:#234772"/>
		<stop  offset="1" style="stop-color:#243772"/>
	</linearGradient>
	<polygon class="st29" points="402.9,223 397.6,231.3 390.6,242.6 398.3,260.1 419.6,257.6 420.4,257.5 433.5,235.1 423.4,218.4 
		418.7,219.5 	"/>
	
		<linearGradient id="SVGID_30_" gradientUnits="userSpaceOnUse" x1="412.8406" y1="424.1556" x2="542.6058" y2="424.1556" gradientTransform="matrix(1 0 0 -1 0 651.89)">
		<stop  offset="0" style="stop-color:#42AB37"/>
		<stop  offset="0.487" style="stop-color:#23706B"/>
		<stop  offset="0.8389" style="stop-color:#234772"/>
		<stop  offset="1" style="stop-color:#243772"/>
	</linearGradient>
	<path class="st30" d="M376.4,243.3l6.9-1.8l3.6-0.9l7.4-11.8l5-7.9l-2.8-6.8c-0.5,0.1-0.9,0.2-1.4,0.2c-1.9,0-3.6-0.9-4.8-2.2
		l-8.9,4l-8.4,13.1l-2.4,3.6l1.8,8.2C373.9,241.3,375.3,242.2,376.4,243.3z"/>
	
		<linearGradient id="SVGID_31_" gradientUnits="userSpaceOnUse" x1="412.8406" y1="399.9516" x2="542.6058" y2="399.9516" gradientTransform="matrix(1 0 0 -1 0 651.89)">
		<stop  offset="0" style="stop-color:#42AB37"/>
		<stop  offset="0.487" style="stop-color:#23706B"/>
		<stop  offset="0.8389" style="stop-color:#234772"/>
		<stop  offset="1" style="stop-color:#243772"/>
	</linearGradient>
	<path class="st31" d="M354.6,268l6-1.5l5.1-11.7c-1.8-1.5-3-3.7-3-6.1c0-3.5,2.3-6.5,5.5-7.5l-1.2-5.6l-5.9,3.2l-1,0.5l-7.3,17
		l0.9,11.9L354.6,268z"/>
	
		<linearGradient id="SVGID_32_" gradientUnits="userSpaceOnUse" x1="412.8406" y1="430.0566" x2="542.6058" y2="430.0566" gradientTransform="matrix(1 0 0 -1 0 651.89)">
		<stop  offset="0" style="stop-color:#42AB37"/>
		<stop  offset="0.487" style="stop-color:#23706B"/>
		<stop  offset="0.8389" style="stop-color:#234772"/>
		<stop  offset="1" style="stop-color:#243772"/>
	</linearGradient>
	<polygon class="st32" points="378.1,213.5 377.5,209.5 373.5,212.3 371.2,214 361.2,228.8 360.8,234.1 366.9,230.8 	"/>
	
		<linearGradient id="SVGID_33_" gradientUnits="userSpaceOnUse" x1="412.8406" y1="386.5994" x2="542.6058" y2="386.5994" gradientTransform="matrix(1 0 0 -1 0 651.89)">
		<stop  offset="0" style="stop-color:#42AB37"/>
		<stop  offset="0.487" style="stop-color:#23706B"/>
		<stop  offset="0.8389" style="stop-color:#234772"/>
		<stop  offset="1" style="stop-color:#243772"/>
	</linearGradient>
	<path class="st33" d="M370.6,256.6c-0.4,0-0.8-0.1-1.2-0.1l-5.2,11.9l5.2,17.2l15.1-1.6l6.5-13.9l3.7-7.9l-1.3-3l-6.3-14.4l-3.9,1
		l-4.8,1.3c0.1,0.5,0.2,1.1,0.2,1.6C378.6,253.1,375,256.6,370.6,256.6z"/>
	
		<linearGradient id="SVGID_34_" gradientUnits="userSpaceOnUse" x1="412.8406" y1="366.9461" x2="542.6058" y2="366.9461" gradientTransform="matrix(1 0 0 -1 0 651.89)">
		<stop  offset="0" style="stop-color:#42AB37"/>
		<stop  offset="0.487" style="stop-color:#23706B"/>
		<stop  offset="0.8389" style="stop-color:#234772"/>
		<stop  offset="1" style="stop-color:#243772"/>
	</linearGradient>
	<path class="st34" d="M419.8,283.8c0-5,2.7-9.4,6.6-11.9l-5.8-10.3l-2,0.3l-20.3,2.4l-3.7,7.9l-6.5,13.8l10.5,22.2h22.6l5.9-12
		C422.7,293.8,419.8,289.2,419.8,283.8z"/>
	
		<linearGradient id="SVGID_35_" gradientUnits="userSpaceOnUse" x1="412.8406" y1="342.8421" x2="542.6058" y2="342.8421" gradientTransform="matrix(1 0 0 -1 0 651.89)">
		<stop  offset="0" style="stop-color:#42AB37"/>
		<stop  offset="0.487" style="stop-color:#23706B"/>
		<stop  offset="0.8389" style="stop-color:#234772"/>
		<stop  offset="1" style="stop-color:#243772"/>
	</linearGradient>
	<polygon class="st35" points="369.9,289.8 364.3,308.6 372.6,327.6 387.7,329.5 395.1,310.3 384.6,288.6 	"/>
	
		<linearGradient id="SVGID_36_" gradientUnits="userSpaceOnUse" x1="412.8406" y1="376.8477" x2="542.6058" y2="376.8477" gradientTransform="matrix(1 0 0 -1 0 651.89)">
		<stop  offset="0" style="stop-color:#42AB37"/>
		<stop  offset="0.487" style="stop-color:#23706B"/>
		<stop  offset="0.8389" style="stop-color:#234772"/>
		<stop  offset="1" style="stop-color:#243772"/>
	</linearGradient>
	<path class="st36" d="M348.9,260.4l-3,2.8c-1.1,5.1-3,15.8-2.8,26.5l2-0.1l4.6-18.9L348.9,260.4z"/>
	
		<linearGradient id="SVGID_37_" gradientUnits="userSpaceOnUse" x1="412.8406" y1="363.1955" x2="542.6058" y2="363.1955" gradientTransform="matrix(1 0 0 -1 0 651.89)">
		<stop  offset="0" style="stop-color:#42AB37"/>
		<stop  offset="0.487" style="stop-color:#23706B"/>
		<stop  offset="0.8389" style="stop-color:#234772"/>
		<stop  offset="1" style="stop-color:#243772"/>
	</linearGradient>
	<polygon class="st37" points="360.6,270.8 355.8,272 353.6,272.5 349.4,289.8 353.4,305.8 360.5,306.5 365.7,287.9 	"/>
</g>
</svg>
